<?xml version="1.0" encoding="utf-8"?>
<!-- Generator: Adobe Illustrator 15.1.0, SVG Export Plug-In . SVG Version: 6.00 Build 0)  -->
<!DOCTYPE svg PUBLIC "-//W3C//DTD SVG 1.1//EN" "http://www.w3.org/Graphics/SVG/1.1/DTD/svg11.dtd">
<svg version="1.1" id="Layer_1" xmlns="http://www.w3.org/2000/svg" xmlns:xlink="http://www.w3.org/1999/xlink" x="0px" y="0px"
	 width="150px" height="100px" viewBox="0 0 150 100" enable-background="new 0 0 150 100" xml:space="preserve">
<path fill="#333333" d="M73.615,98.118L1.238,49.487l72.377-48.63l74.749,48.63L73.615,98.118z M3.596,49.487l70.03,47.058
	l72.329-47.058L73.626,2.434L3.596,49.487z"/>
<path fill="#333333" d="M73.662,94.518L6.646,49.487L73.662,4.459l69.212,45.028L73.662,94.518z M10.181,49.487L73.68,92.154
	l65.581-42.667L73.68,6.821L10.181,49.487z"/>
<g>
	<path fill="#333333" d="M42.038,58.747c-1.243,0-2.299-0.435-3.169-1.305c-0.87-0.87-1.305-1.922-1.305-3.154V44.086
		c0-1.243,0.438-2.299,1.312-3.169c0.875-0.87,1.929-1.305,3.162-1.305c1.243,0,2.297,0.438,3.162,1.312
		c0.865,0.875,1.297,1.929,1.297,3.162v2.133h-2.923v-2.193c0-0.447-0.159-0.83-0.477-1.148c-0.318-0.318-0.701-0.477-1.148-0.477
		c-0.448,0-0.828,0.159-1.141,0.477c-0.313,0.318-0.47,0.701-0.47,1.148v10.231c0,0.447,0.157,0.828,0.47,1.142
		c0.313,0.312,0.693,0.47,1.141,0.47c0.447,0,0.83-0.157,1.148-0.47c0.318-0.313,0.477-0.694,0.477-1.142v-2.58h2.923v2.61
		c0,1.243-0.438,2.297-1.312,3.162C44.31,58.314,43.261,58.747,42.038,58.747z"/>
	<path fill="#333333" d="M55.323,39.582c1.243,0,2.299,0.438,3.169,1.312s1.305,1.929,1.305,3.162v10.202
		c0,1.243-0.438,2.3-1.312,3.17s-1.929,1.305-3.162,1.305c-1.243,0-2.296-0.438-3.162-1.312s-1.298-1.929-1.298-3.162V44.056
		c0-1.243,0.438-2.299,1.312-3.169S54.101,39.582,55.323,39.582z M56.859,43.997c0-0.447-0.157-0.828-0.47-1.141
		c-0.313-0.313-0.694-0.47-1.141-0.47c-0.448,0-0.83,0.157-1.148,0.47c-0.318,0.313-0.478,0.693-0.478,1.141v10.232
		c0,0.447,0.159,0.827,0.478,1.141c0.318,0.313,0.7,0.47,1.148,0.47c0.447,0,0.828-0.156,1.141-0.47
		c0.313-0.313,0.47-0.693,0.47-1.141V43.997z"/>
	<path fill="#333333" d="M67.192,58.509h-2.819V39.806h8.024v2.834h-5.205v5.101h3.803v2.834h-3.803V58.509z"/>
	<path fill="#333333" d="M79.254,58.509h-2.819V39.806h8.024v2.834h-5.205v5.101h3.803v2.834h-3.803V58.509z"/>
	<path fill="#333333" d="M88.499,58.509V39.806h8.022v2.834h-5.204v5.101h3.804v2.834h-3.804v5.101h5.204v2.834H88.499z"/>
	<path fill="#333333" d="M100.561,58.509V39.806h8.023v2.834h-5.205v5.101h3.804v2.834h-3.804v5.101h5.205v2.834H100.561z"/>
</g>
<path fill="#333333" d="M28.523,48.941c0,1.037-0.84,1.879-1.881,1.879c-1.037,0-1.878-0.842-1.878-1.879
	c0-1.039,0.841-1.88,1.878-1.88C27.684,47.062,28.523,47.902,28.523,48.941z"/>
<circle fill="#333333" cx="121.777" cy="48.941" r="1.879"/>
<g>
	<path fill="#333333" d="M56.614,73.189h-1.243v-8.237h1.243V73.189z"/>
	<path fill="#333333" d="M60.572,64.946l1.649,5.539v-5.539h1.243v8.243h-1.334L60.42,67.91v5.279h-1.242v-8.243H60.572z"/>
	<path fill="#333333" d="M70.187,71.296l-0.302,1.894h-1.294l1.4-8.237h1.709l1.38,8.237h-1.306l-0.291-1.894H70.187z
		 M70.839,66.839l-0.46,3.247h0.92L70.839,66.839z"/>
	<path fill="#333333" d="M78.208,73.189v-8.243h1.86c0.491,0,0.934,0.128,1.328,0.387c0.338,0.219,0.579,0.559,0.724,1.019
		c0.079,0.246,0.118,0.537,0.118,0.875c0,0.552-0.146,0.995-0.44,1.328c-0.122,0.14-0.268,0.247-0.435,0.322
		c0.277,0.104,0.512,0.313,0.704,0.624c0.127,0.211,0.222,0.482,0.282,0.815c0.031,0.171,0.047,0.361,0.047,0.572
		c0,0.521-0.1,0.964-0.297,1.328c-0.152,0.284-0.369,0.513-0.65,0.684c-0.315,0.192-0.629,0.289-0.939,0.289H78.208z M79.549,68.312
		h0.52c0.387,0,0.645-0.188,0.776-0.565c0.048-0.141,0.072-0.313,0.072-0.52c0-0.342-0.083-0.601-0.25-0.776
		c-0.153-0.162-0.353-0.243-0.599-0.243h-0.52V68.312z M79.549,71.96h0.52c0.421,0,0.713-0.217,0.875-0.65
		c0.057-0.149,0.086-0.32,0.086-0.514c0-0.46-0.088-0.795-0.264-1.006c-0.158-0.192-0.391-0.289-0.697-0.289h-0.52V71.96z"/>
	<path fill="#333333" d="M86.071,64.848c0.548,0,1.013,0.192,1.396,0.577c0.384,0.386,0.575,0.851,0.575,1.394v4.497
		c0,0.548-0.192,1.014-0.578,1.397s-0.851,0.575-1.394,0.575c-0.549,0-1.013-0.192-1.394-0.578
		c-0.382-0.386-0.572-0.851-0.572-1.395v-4.497c0-0.548,0.192-1.014,0.578-1.396S85.532,64.848,86.071,64.848z M86.748,66.792
		c0-0.197-0.069-0.364-0.207-0.503c-0.138-0.138-0.306-0.207-0.503-0.207s-0.366,0.069-0.506,0.207
		c-0.141,0.139-0.211,0.306-0.211,0.503v4.511c0,0.197,0.07,0.364,0.211,0.503c0.14,0.138,0.309,0.207,0.506,0.207
		s0.365-0.069,0.503-0.207c0.138-0.139,0.207-0.306,0.207-0.503V66.792z"/>
	<path fill="#333333" d="M94.335,73.189h-1.334l-0.954-2.623l-0.96,2.623h-1.334l1.617-4.143l-1.617-4.095h1.374l0.92,2.544
		l0.914-2.544h1.374l-1.617,4.096L94.335,73.189z"/>
</g>
<path fill="#333333" d="M86.541,20.119c-0.815-0.66-1.963-0.671-2.713-0.587c0.021-0.522,0.032-1.062,0.032-1.622H63.947
	c0,5.382,0.815,9.263,5.969,10.712h7.974c2.041-0.571,3.396-1.533,4.294-2.813c1.956-0.035,5.102-0.808,5.219-3.511
	C87.455,21.119,86.964,20.464,86.541,20.119z M71.518,25.513c-0.996-0.996-0.686-2.925,0.696-4.305
	c1.272-1.274,3.012-1.638,4.057-0.905c-0.303,0.561-0.723,1.079-1.296,1.521c-0.368,0.282-0.75,0.495-1.084,0.683
	c-0.229,0.127-0.443,0.246-0.625,0.371c-0.881,0.604-1.494,1.594-1.713,2.67C71.542,25.536,71.53,25.524,71.518,25.513z
	 M75.824,24.817c-1.238,1.238-2.915,1.615-3.967,0.964c1.231-1.767,2.438-2.312,2.438-2.312c1.263-0.628,1.926-1.726,2.204-2.976
	c0.007,0.007,0.013,0.012,0.02,0.018C77.516,21.509,77.204,23.436,75.824,24.817z M83.003,24.265
	c0.375-0.962,0.598-2.047,0.72-3.236c0.527-0.089,1.438-0.143,1.897,0.234c0.084,0.068,0.349,0.284,0.316,0.972
	C85.88,23.637,84.14,24.107,83.003,24.265z"/>
<g>
	<g>
		<path fill="#333333" d="M87.606,30.887c-4.263-1.733-8.76-2.613-13.369-2.613c-4.608,0-9.104,0.88-13.368,2.613
			c0.004,0.396-0.2,0.797-0.553,1.078l1.424,3.152c0.047-0.005,0.095-0.006,0.143-0.006c0.361,0,0.693,0.147,0.924,0.395
			c3.647-1.473,7.49-2.221,11.431-2.221s7.784,0.748,11.433,2.221c0.229-0.247,0.562-0.395,0.924-0.395
			c0.047,0,0.094,0.001,0.141,0.006l1.424-3.152C87.805,31.684,87.603,31.283,87.606,30.887z M64.264,33.365
			c-0.04,0.133-0.119,0.25-0.236,0.351c-0.118,0.101-0.26,0.178-0.431,0.231c-0.282,0.088-0.514,0.099-0.703,0.027
			c-0.187-0.069-0.342-0.214-0.464-0.434c0.116-0.062,0.232-0.123,0.35-0.183c0.07,0.141,0.165,0.236,0.286,0.286
			c0.119,0.048,0.263,0.046,0.433-0.007c0.17-0.053,0.285-0.126,0.347-0.223c0.062-0.095,0.079-0.19,0.05-0.286
			c-0.025-0.086-0.082-0.143-0.171-0.169c-0.061-0.018-0.203-0.023-0.425-0.01c-0.298,0.017-0.511,0.02-0.635,0.004
			c-0.123-0.016-0.229-0.059-0.314-0.129c-0.085-0.071-0.147-0.16-0.184-0.269c-0.033-0.098-0.042-0.197-0.023-0.297
			c0.018-0.1,0.058-0.19,0.12-0.273c0.047-0.063,0.117-0.127,0.212-0.191c0.095-0.063,0.203-0.116,0.324-0.154
			c0.182-0.057,0.349-0.08,0.502-0.07c0.152,0.009,0.274,0.048,0.365,0.115s0.168,0.171,0.234,0.309
			c-0.122,0.053-0.243,0.107-0.364,0.161c-0.051-0.11-0.127-0.185-0.23-0.224c-0.103-0.04-0.23-0.035-0.381,0.012
			c-0.179,0.057-0.296,0.125-0.354,0.208c-0.057,0.082-0.073,0.161-0.048,0.238c0.016,0.048,0.047,0.087,0.09,0.116
			c0.044,0.03,0.104,0.047,0.179,0.053c0.043,0.001,0.166-0.003,0.369-0.012c0.292-0.012,0.499-0.01,0.619,0.004
			c0.12,0.015,0.223,0.057,0.309,0.127c0.085,0.07,0.146,0.169,0.183,0.299C64.307,33.103,64.305,33.233,64.264,33.365z
			 M64.405,30.312c0.135-0.035,0.271-0.07,0.406-0.104c0.037,0.147,0.073,0.294,0.11,0.44c-0.134,0.034-0.268,0.068-0.401,0.103
			C64.481,30.605,64.443,30.458,64.405,30.312z M65.218,33.429c-0.197-0.753-0.393-1.506-0.589-2.258
			c0.132-0.035,0.264-0.068,0.396-0.102l0.565,2.265C65.467,33.364,65.342,33.396,65.218,33.429z M67.901,32.837
			c-0.084-0.466-0.168-0.932-0.252-1.397c-0.029-0.158-0.065-0.274-0.111-0.347c-0.045-0.072-0.111-0.125-0.198-0.157
			c-0.087-0.032-0.184-0.038-0.29-0.017c-0.168,0.033-0.304,0.114-0.404,0.244c-0.101,0.13-0.12,0.341-0.058,0.634
			c0.088,0.416,0.176,0.831,0.264,1.247c-0.125,0.027-0.25,0.054-0.374,0.082c-0.169-0.759-0.339-1.519-0.508-2.278
			c0.12-0.026,0.239-0.053,0.359-0.078c0.023,0.108,0.046,0.217,0.069,0.325c0.118-0.287,0.343-0.465,0.672-0.528
			c0.142-0.027,0.278-0.027,0.406,0.002c0.129,0.028,0.23,0.078,0.303,0.148c0.072,0.071,0.13,0.16,0.173,0.267
			c0.026,0.069,0.055,0.194,0.086,0.375c0.08,0.471,0.16,0.943,0.24,1.415C68.152,32.792,68.026,32.814,67.901,32.837z
			 M70.679,32.27c-0.154,0.168-0.351,0.265-0.594,0.294c-0.305,0.036-0.564-0.035-0.779-0.216c-0.216-0.18-0.354-0.462-0.411-0.848
			c-0.037-0.25-0.028-0.474,0.029-0.672c0.058-0.199,0.167-0.358,0.328-0.474c0.161-0.117,0.345-0.188,0.55-0.213
			c0.259-0.03,0.479,0.011,0.655,0.122c0.178,0.112,0.299,0.283,0.366,0.513c-0.127,0.032-0.253,0.064-0.379,0.097
			c-0.053-0.152-0.131-0.263-0.233-0.331c-0.104-0.068-0.222-0.094-0.355-0.079c-0.203,0.023-0.358,0.115-0.464,0.273
			c-0.107,0.158-0.138,0.391-0.096,0.697c0.042,0.311,0.131,0.528,0.267,0.654c0.134,0.125,0.295,0.177,0.482,0.155
			c0.149-0.018,0.269-0.079,0.359-0.184c0.091-0.106,0.141-0.258,0.148-0.458c0.129,0.003,0.257,0.008,0.386,0.013
			C70.919,31.884,70.833,32.103,70.679,32.27z M73.581,31.206c-0.576,0.011-1.151,0.035-1.725,0.073
			c0.031,0.254,0.116,0.445,0.251,0.574c0.134,0.128,0.295,0.187,0.484,0.178c0.141-0.006,0.26-0.049,0.356-0.129
			c0.097-0.08,0.173-0.203,0.226-0.373c0.135,0.013,0.269,0.027,0.403,0.041c-0.058,0.24-0.17,0.427-0.335,0.565
			c-0.165,0.136-0.375,0.209-0.636,0.222c-0.328,0.015-0.593-0.073-0.802-0.27c-0.208-0.196-0.329-0.482-0.358-0.86
			c-0.03-0.392,0.047-0.704,0.239-0.934c0.19-0.23,0.454-0.356,0.784-0.373c0.321-0.015,0.587,0.083,0.794,0.29
			c0.208,0.207,0.312,0.504,0.319,0.89C73.582,31.124,73.581,31.159,73.581,31.206z M77.924,30.479
			c-0.064,0.119-0.166,0.241-0.3,0.367c-0.136,0.126-0.356,0.296-0.654,0.515c-0.248,0.182-0.405,0.309-0.477,0.375
			c-0.068,0.067-0.127,0.135-0.175,0.205c0.513,0.029,1.024,0.068,1.536,0.119l-0.038,0.378c-0.681-0.067-1.364-0.115-2.048-0.143
			c0.001-0.095,0.02-0.186,0.056-0.272c0.06-0.143,0.15-0.282,0.274-0.417c0.124-0.134,0.303-0.288,0.539-0.458
			c0.366-0.263,0.623-0.471,0.76-0.628c0.139-0.157,0.216-0.309,0.229-0.458c0.014-0.156-0.031-0.293-0.14-0.41
			c-0.106-0.118-0.254-0.183-0.44-0.197c-0.198-0.014-0.361,0.034-0.485,0.141c-0.126,0.107-0.193,0.262-0.206,0.463
			c-0.138-0.021-0.276-0.042-0.414-0.062c0.042-0.301,0.16-0.528,0.356-0.677c0.199-0.149,0.46-0.214,0.781-0.191
			c0.324,0.023,0.573,0.131,0.744,0.318c0.173,0.188,0.245,0.409,0.22,0.662C78.029,30.237,77.99,30.361,77.924,30.479z
			 M80.83,31.25c-0.065,0.372-0.155,0.667-0.271,0.881c-0.115,0.216-0.257,0.374-0.425,0.475c-0.168,0.1-0.364,0.133-0.59,0.1
			c-0.297-0.043-0.513-0.185-0.655-0.427c-0.171-0.292-0.225-0.737-0.153-1.339c0.046-0.378,0.121-0.678,0.229-0.898
			c0.108-0.221,0.252-0.383,0.429-0.487c0.177-0.104,0.388-0.139,0.632-0.103c0.181,0.027,0.334,0.086,0.457,0.176
			c0.124,0.09,0.221,0.208,0.285,0.352c0.064,0.144,0.107,0.313,0.122,0.507C80.908,30.682,80.886,30.936,80.83,31.25z
			 M82.667,33.255c-0.125-0.03-0.249-0.059-0.373-0.087c0.187-0.819,0.374-1.638,0.562-2.458c-0.116,0.067-0.263,0.127-0.438,0.182
			c-0.175,0.055-0.327,0.093-0.46,0.112c0.025-0.125,0.052-0.25,0.077-0.375c0.244-0.056,0.467-0.136,0.669-0.243
			c0.2-0.106,0.353-0.218,0.454-0.338c0.088,0.021,0.176,0.041,0.263,0.062C83.17,31.158,82.918,32.207,82.667,33.255z
			 M86.679,31.501c-0.428-0.145-0.856-0.281-1.288-0.41c-0.141,0.259-0.28,0.518-0.418,0.778c0.229-0.073,0.449-0.077,0.658-0.012
			c0.276,0.086,0.481,0.256,0.608,0.503c0.124,0.248,0.136,0.516,0.036,0.806c-0.094,0.275-0.256,0.486-0.48,0.635
			c-0.277,0.183-0.578,0.221-0.908,0.118c-0.273-0.084-0.473-0.229-0.602-0.437c-0.128-0.208-0.17-0.444-0.123-0.713
			c0.137,0.026,0.272,0.052,0.408,0.08c-0.027,0.203-0.003,0.369,0.075,0.498c0.076,0.128,0.188,0.215,0.337,0.262
			c0.178,0.055,0.35,0.035,0.52-0.061c0.168-0.097,0.29-0.257,0.364-0.482c0.07-0.214,0.065-0.403-0.018-0.568
			c-0.082-0.163-0.225-0.277-0.424-0.339c-0.125-0.039-0.246-0.045-0.363-0.02c-0.117,0.025-0.217,0.075-0.299,0.146
			c-0.116-0.051-0.232-0.101-0.35-0.15c0.251-0.502,0.507-1.003,0.767-1.502c0.543,0.158,1.083,0.327,1.62,0.509
			C86.76,31.262,86.72,31.382,86.679,31.501z M72.488,30.246c-0.185,0.009-0.337,0.078-0.455,0.207
			c-0.118,0.129-0.177,0.296-0.176,0.5c0.434-0.028,0.868-0.049,1.302-0.062c-0.023-0.196-0.078-0.342-0.165-0.437
			C72.862,30.306,72.692,30.236,72.488,30.246z M79.974,29.775c-0.188-0.028-0.35,0.027-0.48,0.166
			c-0.166,0.175-0.284,0.525-0.352,1.049c-0.068,0.525-0.054,0.881,0.045,1.071c0.097,0.19,0.23,0.297,0.405,0.323
			c0.174,0.025,0.336-0.038,0.483-0.192s0.266-0.491,0.352-1.011c0.087-0.523,0.082-0.88-0.017-1.073
			C80.312,29.916,80.165,29.804,79.974,29.775z"/>
	</g>
</g>
</svg>
